<?xml version="1.0" encoding="UTF-8"?>
<svg xmlns="http://www.w3.org/2000/svg" width="924" height="154">
<rect x="0" y="0" width="100%" height="100%" fill="white"/>
<text x="260" y="26" font-size="16" font-family="monospace">LogitLens KL-to-final (ngram_polysemy)</text>
<text x="260" y="46" font-size="12" font-family="monospace">KL(p_final || p_layer)  min=0  max=7.341  (lower is better)</text>
<text x="273.0" y="52" font-size="10" font-family="monospace" text-anchor="middle">L0</text>
<text x="299.0" y="52" font-size="10" font-family="monospace" text-anchor="middle">L1</text>
<text x="325.0" y="52" font-size="10" font-family="monospace" text-anchor="middle">L2</text>
<text x="351.0" y="52" font-size="10" font-family="monospace" text-anchor="middle">L3</text>
<text x="377.0" y="52" font-size="10" font-family="monospace" text-anchor="middle">L4</text>
<text x="403.0" y="52" font-size="10" font-family="monospace" text-anchor="middle">L5</text>
<text x="429.0" y="52" font-size="10" font-family="monospace" text-anchor="middle">L6</text>
<text x="455.0" y="52" font-size="10" font-family="monospace" text-anchor="middle">L7</text>
<text x="481.0" y="52" font-size="10" font-family="monospace" text-anchor="middle">L8</text>
<text x="507.0" y="52" font-size="10" font-family="monospace" text-anchor="middle">L9</text>
<text x="533.0" y="52" font-size="10" font-family="monospace" text-anchor="middle">L10</text>
<text x="559.0" y="52" font-size="10" font-family="monospace" text-anchor="middle">L11</text>
<text x="585.0" y="52" font-size="10" font-family="monospace" text-anchor="middle">L12</text>
<text x="611.0" y="52" font-size="10" font-family="monospace" text-anchor="middle">L13</text>
<text x="637.0" y="52" font-size="10" font-family="monospace" text-anchor="middle">L14</text>
<text x="663.0" y="52" font-size="10" font-family="monospace" text-anchor="middle">L15</text>
<text x="689.0" y="52" font-size="10" font-family="monospace" text-anchor="middle">L16</text>
<text x="715.0" y="52" font-size="10" font-family="monospace" text-anchor="middle">L17</text>
<text x="741.0" y="52" font-size="10" font-family="monospace" text-anchor="middle">L18</text>
<text x="767.0" y="52" font-size="10" font-family="monospace" text-anchor="middle">L19</text>
<text x="793.0" y="52" font-size="10" font-family="monospace" text-anchor="middle">L20</text>
<text x="819.0" y="52" font-size="10" font-family="monospace" text-anchor="middle">L21</text>
<text x="845.0" y="52" font-size="10" font-family="monospace" text-anchor="middle">L22</text>
<text x="871.0" y="52" font-size="10" font-family="monospace" text-anchor="middle">L23</text>
<text x="252" y="73.0" font-size="10" font-family="monospace" text-anchor="end">width=fixed,residual=vanilla,memory=engram,attn=global</text>
<rect x="260" y="60" width="26" height="18" fill="#d5deea" stroke="#e0e0e0" stroke-width="1"/>
<rect x="286" y="60" width="26" height="18" fill="#d9e1ec" stroke="#e0e0e0" stroke-width="1"/>
<rect x="312" y="60" width="26" height="18" fill="#dee5ef" stroke="#e0e0e0" stroke-width="1"/>
<rect x="338" y="60" width="26" height="18" fill="#e8eef5" stroke="#e0e0e0" stroke-width="1"/>
<rect x="364" y="60" width="26" height="18" fill="#eff4fa" stroke="#e0e0e0" stroke-width="1"/>
<rect x="390" y="60" width="26" height="18" fill="#f1f6fb" stroke="#e0e0e0" stroke-width="1"/>
<rect x="416" y="60" width="26" height="18" fill="#f7fbff" stroke="#e0e0e0" stroke-width="1"/>
<rect x="442" y="60" width="26" height="18" fill="#ecf2f8" stroke="#e0e0e0" stroke-width="1"/>
<rect x="468" y="60" width="26" height="18" fill="#f2f7fc" stroke="#e0e0e0" stroke-width="1"/>
<rect x="494" y="60" width="26" height="18" fill="#e6edf5" stroke="#e0e0e0" stroke-width="1"/>
<rect x="520" y="60" width="26" height="18" fill="#d2dbe8" stroke="#e0e0e0" stroke-width="1"/>
<rect x="546" y="60" width="26" height="18" fill="#b3c1d5" stroke="#e0e0e0" stroke-width="1"/>
<rect x="572" y="60" width="26" height="18" fill="#9aacc5" stroke="#e0e0e0" stroke-width="1"/>
<rect x="598" y="60" width="26" height="18" fill="#899ebb" stroke="#e0e0e0" stroke-width="1"/>
<rect x="624" y="60" width="26" height="18" fill="#7d93b3" stroke="#e0e0e0" stroke-width="1"/>
<rect x="650" y="60" width="26" height="18" fill="#788fb0" stroke="#e0e0e0" stroke-width="1"/>
<rect x="676" y="60" width="26" height="18" fill="#728aad" stroke="#e0e0e0" stroke-width="1"/>
<rect x="702" y="60" width="26" height="18" fill="#6b84a8" stroke="#e0e0e0" stroke-width="1"/>
<rect x="728" y="60" width="26" height="18" fill="#6a83a7" stroke="#e0e0e0" stroke-width="1"/>
<rect x="754" y="60" width="26" height="18" fill="#7088ab" stroke="#e0e0e0" stroke-width="1"/>
<rect x="780" y="60" width="26" height="18" fill="#748bae" stroke="#e0e0e0" stroke-width="1"/>
<rect x="806" y="60" width="26" height="18" fill="#526f99" stroke="#e0e0e0" stroke-width="1"/>
<rect x="832" y="60" width="26" height="18" fill="#1d4278" stroke="#e0e0e0" stroke-width="1"/>
<rect x="858" y="60" width="26" height="18" fill="#08306b" stroke="#e0e0e0" stroke-width="1"/>
<text x="252" y="91.0" font-size="10" font-family="monospace" text-anchor="end">width=fixed,residual=vanilla,memory=none,attn=global</text>
<rect x="260" y="78" width="26" height="18" fill="#bdcadb" stroke="#e0e0e0" stroke-width="1"/>
<rect x="286" y="78" width="26" height="18" fill="#8ca0bd" stroke="#e0e0e0" stroke-width="1"/>
<rect x="312" y="78" width="26" height="18" fill="#7e95b4" stroke="#e0e0e0" stroke-width="1"/>
<rect x="338" y="78" width="26" height="18" fill="#788fb0" stroke="#e0e0e0" stroke-width="1"/>
<rect x="364" y="78" width="26" height="18" fill="#728aad" stroke="#e0e0e0" stroke-width="1"/>
<rect x="390" y="78" width="26" height="18" fill="#6e87aa" stroke="#e0e0e0" stroke-width="1"/>
<rect x="416" y="78" width="26" height="18" fill="#6882a7" stroke="#e0e0e0" stroke-width="1"/>
<rect x="442" y="78" width="26" height="18" fill="#6781a6" stroke="#e0e0e0" stroke-width="1"/>
<rect x="468" y="78" width="26" height="18" fill="#607ba1" stroke="#e0e0e0" stroke-width="1"/>
<rect x="494" y="78" width="26" height="18" fill="#5c779f" stroke="#e0e0e0" stroke-width="1"/>
<rect x="520" y="78" width="26" height="18" fill="#5a769e" stroke="#e0e0e0" stroke-width="1"/>
<rect x="546" y="78" width="26" height="18" fill="#5c779f" stroke="#e0e0e0" stroke-width="1"/>
<rect x="572" y="78" width="26" height="18" fill="#506e98" stroke="#e0e0e0" stroke-width="1"/>
<rect x="598" y="78" width="26" height="18" fill="#516e98" stroke="#e0e0e0" stroke-width="1"/>
<rect x="624" y="78" width="26" height="18" fill="#4d6b96" stroke="#e0e0e0" stroke-width="1"/>
<rect x="650" y="78" width="26" height="18" fill="#3e5e8d" stroke="#e0e0e0" stroke-width="1"/>
<rect x="676" y="78" width="26" height="18" fill="#325485" stroke="#e0e0e0" stroke-width="1"/>
<rect x="702" y="78" width="26" height="18" fill="#274a7e" stroke="#e0e0e0" stroke-width="1"/>
<rect x="728" y="78" width="26" height="18" fill="#183e75" stroke="#e0e0e0" stroke-width="1"/>
<rect x="754" y="78" width="26" height="18" fill="#0f366f" stroke="#e0e0e0" stroke-width="1"/>
<rect x="780" y="78" width="26" height="18" fill="#0b326d" stroke="#e0e0e0" stroke-width="1"/>
<rect x="806" y="78" width="26" height="18" fill="#09316c" stroke="#e0e0e0" stroke-width="1"/>
<rect x="832" y="78" width="26" height="18" fill="#08306b" stroke="#e0e0e0" stroke-width="1"/>
<rect x="858" y="78" width="26" height="18" fill="#08306b" stroke="#e0e0e0" stroke-width="1"/>
<text x="252" y="109.0" font-size="10" font-family="monospace" text-anchor="end">width=fixed,residual=vanilla,memory=ple_ngrammer,attn=global</text>
<rect x="260" y="96" width="26" height="18" fill="#a8b8ce" stroke="#e0e0e0" stroke-width="1"/>
<rect x="286" y="96" width="26" height="18" fill="#90a3bf" stroke="#e0e0e0" stroke-width="1"/>
<rect x="312" y="96" width="26" height="18" fill="#8197b6" stroke="#e0e0e0" stroke-width="1"/>
<rect x="338" y="96" width="26" height="18" fill="#778eb0" stroke="#e0e0e0" stroke-width="1"/>
<rect x="364" y="96" width="26" height="18" fill="#6e87aa" stroke="#e0e0e0" stroke-width="1"/>
<rect x="390" y="96" width="26" height="18" fill="#6982a7" stroke="#e0e0e0" stroke-width="1"/>
<rect x="416" y="96" width="26" height="18" fill="#6680a5" stroke="#e0e0e0" stroke-width="1"/>
<rect x="442" y="96" width="26" height="18" fill="#657fa4" stroke="#e0e0e0" stroke-width="1"/>
<rect x="468" y="96" width="26" height="18" fill="#627ca3" stroke="#e0e0e0" stroke-width="1"/>
<rect x="494" y="96" width="26" height="18" fill="#617ba2" stroke="#e0e0e0" stroke-width="1"/>
<rect x="520" y="96" width="26" height="18" fill="#5c779f" stroke="#e0e0e0" stroke-width="1"/>
<rect x="546" y="96" width="26" height="18" fill="#59759d" stroke="#e0e0e0" stroke-width="1"/>
<rect x="572" y="96" width="26" height="18" fill="#56729b" stroke="#e0e0e0" stroke-width="1"/>
<rect x="598" y="96" width="26" height="18" fill="#516e98" stroke="#e0e0e0" stroke-width="1"/>
<rect x="624" y="96" width="26" height="18" fill="#4e6b96" stroke="#e0e0e0" stroke-width="1"/>
<rect x="650" y="96" width="26" height="18" fill="#4e6b96" stroke="#e0e0e0" stroke-width="1"/>
<rect x="676" y="96" width="26" height="18" fill="#4b6995" stroke="#e0e0e0" stroke-width="1"/>
<rect x="702" y="96" width="26" height="18" fill="#496793" stroke="#e0e0e0" stroke-width="1"/>
<rect x="728" y="96" width="26" height="18" fill="#466491" stroke="#e0e0e0" stroke-width="1"/>
<rect x="754" y="96" width="26" height="18" fill="#3d5d8c" stroke="#e0e0e0" stroke-width="1"/>
<rect x="780" y="96" width="26" height="18" fill="#315284" stroke="#e0e0e0" stroke-width="1"/>
<rect x="806" y="96" width="26" height="18" fill="#2d4f82" stroke="#e0e0e0" stroke-width="1"/>
<rect x="832" y="96" width="26" height="18" fill="#264a7e" stroke="#e0e0e0" stroke-width="1"/>
<rect x="858" y="96" width="26" height="18" fill="#08306b" stroke="#e0e0e0" stroke-width="1"/>
</svg>
