<?xml version="1.0" encoding="UTF-8"?>
<svg xmlns="http://www.w3.org/2000/svg" width="428" height="400">
<rect x="0" y="0" width="100%" height="100%" fill="white"/>
<text x="90" y="26" font-size="16" font-family="sans-serif" font-weight="bold">ngram_polysemy: answer_exact_match by mode</text>
<text x="90" y="46" font-size="11" font-family="sans-serif" fill="#666666">Polysemy slice bars (ngram_polysemy-style)</text>
<rect x="90" y="70" width="138" height="250" fill="#fafafa" stroke="#cccccc" stroke-width="1"/>
<line x1="90" y1="320.0" x2="228" y2="320.0" stroke="#e0e0e0" stroke-width="1"/>
<text x="82" y="324.0" font-size="10" font-family="sans-serif" text-anchor="end">0.00</text>
<line x1="90" y1="270.0" x2="228" y2="270.0" stroke="#e0e0e0" stroke-width="1"/>
<text x="82" y="274.0" font-size="10" font-family="sans-serif" text-anchor="end">0.00</text>
<line x1="90" y1="220.0" x2="228" y2="220.0" stroke="#e0e0e0" stroke-width="1"/>
<text x="82" y="224.0" font-size="10" font-family="sans-serif" text-anchor="end">0.00</text>
<line x1="90" y1="170.0" x2="228" y2="170.0" stroke="#e0e0e0" stroke-width="1"/>
<text x="82" y="174.0" font-size="10" font-family="sans-serif" text-anchor="end">0.00</text>
<line x1="90" y1="120.0" x2="228" y2="120.0" stroke="#e0e0e0" stroke-width="1"/>
<text x="82" y="124.0" font-size="10" font-family="sans-serif" text-anchor="end">0.00</text>
<line x1="90" y1="70.0" x2="228" y2="70.0" stroke="#e0e0e0" stroke-width="1"/>
<text x="82" y="74.0" font-size="10" font-family="sans-serif" text-anchor="end">0.00</text>
<text x="20" y="195.0" font-size="11" font-family="sans-serif" font-weight="bold" text-anchor="middle" transform="rotate(-90 20 195.0)">answer_exact_match</text>
<text x="120.0" y="340" font-size="10" font-family="sans-serif" text-anchor="middle">mode=A</text>
<rect x="95" y="320.0" width="15" height="0.0" fill="#e41a1c" stroke="white" stroke-width="1"/>
<rect x="111" y="320.0" width="15" height="0.0" fill="#377eb8" stroke="white" stroke-width="1"/>
<rect x="127" y="320.0" width="15" height="0.0" fill="#4daf4a" stroke="white" stroke-width="1"/>
<text x="198.0" y="340" font-size="10" font-family="sans-serif" text-anchor="middle">mode=B</text>
<rect x="173" y="320.0" width="15" height="0.0" fill="#e41a1c" stroke="white" stroke-width="1"/>
<rect x="189" y="320.0" width="15" height="0.0" fill="#377eb8" stroke="white" stroke-width="1"/>
<rect x="205" y="320.0" width="15" height="0.0" fill="#4daf4a" stroke="white" stroke-width="1"/>
<rect x="243" y="73" width="12" height="12" fill="#e41a1c"/>
<text x="261" y="84" font-size="9" font-family="sans-serif">width=fixed,residual=vani...</text>
<rect x="243" y="93" width="12" height="12" fill="#377eb8"/>
<text x="261" y="104" font-size="9" font-family="sans-serif">width=fixed,residual=vani...</text>
<rect x="243" y="113" width="12" height="12" fill="#4daf4a"/>
<text x="261" y="124" font-size="9" font-family="sans-serif">width=fixed,residual=vani...</text>
</svg>
