<?xml version="1.0" encoding="UTF-8"?>
<svg xmlns="http://www.w3.org/2000/svg" width="800" height="430">
<rect x="0" y="0" width="100%" height="100%" fill="white"/>
<text x="80" y="26" font-size="16" font-family="sans-serif" font-weight="bold">ngram_polysemy: per-layer CE by slice</text>
<text x="80" y="46" font-size="11" font-family="sans-serif" fill="#666666">width=fixed,residual=vanilla,memory=none,attn=global (CE to ground-truth; lower is better)</text>
<rect x="80" y="70" width="520" height="300" fill="#fafafa" stroke="#cccccc" stroke-width="1"/>
<line x1="80" y1="370.0" x2="600" y2="370.0" stroke="#e0e0e0" stroke-width="1"/>
<text x="72" y="374.0" font-size="10" font-family="sans-serif" text-anchor="end">2.78</text>
<line x1="80" y1="310.0" x2="600" y2="310.0" stroke="#e0e0e0" stroke-width="1"/>
<text x="72" y="314.0" font-size="10" font-family="sans-serif" text-anchor="end">3.70</text>
<line x1="80" y1="250.0" x2="600" y2="250.0" stroke="#e0e0e0" stroke-width="1"/>
<text x="72" y="254.0" font-size="10" font-family="sans-serif" text-anchor="end">4.62</text>
<line x1="80" y1="190.0" x2="600" y2="190.0" stroke="#e0e0e0" stroke-width="1"/>
<text x="72" y="194.0" font-size="10" font-family="sans-serif" text-anchor="end">5.55</text>
<line x1="80" y1="130.0" x2="600" y2="130.0" stroke="#e0e0e0" stroke-width="1"/>
<text x="72" y="134.0" font-size="10" font-family="sans-serif" text-anchor="end">6.47</text>
<line x1="80" y1="70.0" x2="600" y2="70.0" stroke="#e0e0e0" stroke-width="1"/>
<text x="72" y="74.0" font-size="10" font-family="sans-serif" text-anchor="end">7.39</text>
<text x="80.0" y="390" font-size="10" font-family="sans-serif" text-anchor="middle">0</text>
<text x="102.6" y="390" font-size="10" font-family="sans-serif" text-anchor="middle">1</text>
<text x="125.2" y="390" font-size="10" font-family="sans-serif" text-anchor="middle">2</text>
<text x="147.8" y="390" font-size="10" font-family="sans-serif" text-anchor="middle">3</text>
<text x="170.4" y="390" font-size="10" font-family="sans-serif" text-anchor="middle">4</text>
<text x="193.0" y="390" font-size="10" font-family="sans-serif" text-anchor="middle">5</text>
<text x="215.7" y="390" font-size="10" font-family="sans-serif" text-anchor="middle">6</text>
<text x="238.3" y="390" font-size="10" font-family="sans-serif" text-anchor="middle">7</text>
<text x="260.9" y="390" font-size="10" font-family="sans-serif" text-anchor="middle">8</text>
<text x="283.5" y="390" font-size="10" font-family="sans-serif" text-anchor="middle">9</text>
<text x="306.1" y="390" font-size="10" font-family="sans-serif" text-anchor="middle">10</text>
<text x="328.7" y="390" font-size="10" font-family="sans-serif" text-anchor="middle">11</text>
<text x="351.3" y="390" font-size="10" font-family="sans-serif" text-anchor="middle">12</text>
<text x="373.9" y="390" font-size="10" font-family="sans-serif" text-anchor="middle">13</text>
<text x="396.5" y="390" font-size="10" font-family="sans-serif" text-anchor="middle">14</text>
<text x="419.1" y="390" font-size="10" font-family="sans-serif" text-anchor="middle">15</text>
<text x="441.7" y="390" font-size="10" font-family="sans-serif" text-anchor="middle">16</text>
<text x="464.3" y="390" font-size="10" font-family="sans-serif" text-anchor="middle">17</text>
<text x="487.0" y="390" font-size="10" font-family="sans-serif" text-anchor="middle">18</text>
<text x="509.6" y="390" font-size="10" font-family="sans-serif" text-anchor="middle">19</text>
<text x="532.2" y="390" font-size="10" font-family="sans-serif" text-anchor="middle">20</text>
<text x="554.8" y="390" font-size="10" font-family="sans-serif" text-anchor="middle">21</text>
<text x="577.4" y="390" font-size="10" font-family="sans-serif" text-anchor="middle">22</text>
<text x="600.0" y="390" font-size="10" font-family="sans-serif" text-anchor="middle">23</text>
<text x="340.0" y="415" font-size="11" font-family="sans-serif" font-weight="bold" text-anchor="middle">layer</text>
<text x="20" y="220.0" font-size="11" font-family="sans-serif" font-weight="bold" text-anchor="middle" transform="rotate(-90 20 220.0)">CE</text>
<polyline points="80.0,83.6 102.6,133.7 125.2,171.9 147.8,208.5 170.4,224.8 193.0,235.2 215.7,240.8 238.3,247.3 260.9,252.9 283.5,259.3 306.1,264.8 328.7,263.9 351.3,271.2 373.9,281.6 396.5,281.6 419.1,299.0 441.7,311.2 464.3,326.6 487.0,340.0 509.6,349.1 532.2,353.0 554.8,354.8 577.4,356.0 600.0,356.4" fill="none" stroke="#e41a1c" stroke-width="2.5"/>
<circle cx="80.0" cy="83.6" r="4" fill="#e41a1c" stroke="white" stroke-width="1.5"/>
<circle cx="102.6" cy="133.7" r="4" fill="#e41a1c" stroke="white" stroke-width="1.5"/>
<circle cx="125.2" cy="171.9" r="4" fill="#e41a1c" stroke="white" stroke-width="1.5"/>
<circle cx="147.8" cy="208.5" r="4" fill="#e41a1c" stroke="white" stroke-width="1.5"/>
<circle cx="170.4" cy="224.8" r="4" fill="#e41a1c" stroke="white" stroke-width="1.5"/>
<circle cx="193.0" cy="235.2" r="4" fill="#e41a1c" stroke="white" stroke-width="1.5"/>
<circle cx="215.7" cy="240.8" r="4" fill="#e41a1c" stroke="white" stroke-width="1.5"/>
<circle cx="238.3" cy="247.3" r="4" fill="#e41a1c" stroke="white" stroke-width="1.5"/>
<circle cx="260.9" cy="252.9" r="4" fill="#e41a1c" stroke="white" stroke-width="1.5"/>
<circle cx="283.5" cy="259.3" r="4" fill="#e41a1c" stroke="white" stroke-width="1.5"/>
<circle cx="306.1" cy="264.8" r="4" fill="#e41a1c" stroke="white" stroke-width="1.5"/>
<circle cx="328.7" cy="263.9" r="4" fill="#e41a1c" stroke="white" stroke-width="1.5"/>
<circle cx="351.3" cy="271.2" r="4" fill="#e41a1c" stroke="white" stroke-width="1.5"/>
<circle cx="373.9" cy="281.6" r="4" fill="#e41a1c" stroke="white" stroke-width="1.5"/>
<circle cx="396.5" cy="281.6" r="4" fill="#e41a1c" stroke="white" stroke-width="1.5"/>
<circle cx="419.1" cy="299.0" r="4" fill="#e41a1c" stroke="white" stroke-width="1.5"/>
<circle cx="441.7" cy="311.2" r="4" fill="#e41a1c" stroke="white" stroke-width="1.5"/>
<circle cx="464.3" cy="326.6" r="4" fill="#e41a1c" stroke="white" stroke-width="1.5"/>
<circle cx="487.0" cy="340.0" r="4" fill="#e41a1c" stroke="white" stroke-width="1.5"/>
<circle cx="509.6" cy="349.1" r="4" fill="#e41a1c" stroke="white" stroke-width="1.5"/>
<circle cx="532.2" cy="353.0" r="4" fill="#e41a1c" stroke="white" stroke-width="1.5"/>
<circle cx="554.8" cy="354.8" r="4" fill="#e41a1c" stroke="white" stroke-width="1.5"/>
<circle cx="577.4" cy="356.0" r="4" fill="#e41a1c" stroke="white" stroke-width="1.5"/>
<circle cx="600.0" cy="356.4" r="4" fill="#e41a1c" stroke="white" stroke-width="1.5"/>
<polyline points="80.0,90.2 102.6,141.0 125.2,166.8 147.8,175.6 170.4,179.5 193.0,187.8 215.7,194.6 238.3,202.4 260.9,208.9 283.5,215.6 306.1,224.6 328.7,226.7 351.3,236.7 373.9,244.8 396.5,246.7 419.1,265.0 441.7,278.7 464.3,296.5 487.0,311.0 509.6,322.4 532.2,327.2 554.8,330.5 577.4,331.8 600.0,332.2" fill="none" stroke="#377eb8" stroke-width="2.5"/>
<circle cx="80.0" cy="90.2" r="4" fill="#377eb8" stroke="white" stroke-width="1.5"/>
<circle cx="102.6" cy="141.0" r="4" fill="#377eb8" stroke="white" stroke-width="1.5"/>
<circle cx="125.2" cy="166.8" r="4" fill="#377eb8" stroke="white" stroke-width="1.5"/>
<circle cx="147.8" cy="175.6" r="4" fill="#377eb8" stroke="white" stroke-width="1.5"/>
<circle cx="170.4" cy="179.5" r="4" fill="#377eb8" stroke="white" stroke-width="1.5"/>
<circle cx="193.0" cy="187.8" r="4" fill="#377eb8" stroke="white" stroke-width="1.5"/>
<circle cx="215.7" cy="194.6" r="4" fill="#377eb8" stroke="white" stroke-width="1.5"/>
<circle cx="238.3" cy="202.4" r="4" fill="#377eb8" stroke="white" stroke-width="1.5"/>
<circle cx="260.9" cy="208.9" r="4" fill="#377eb8" stroke="white" stroke-width="1.5"/>
<circle cx="283.5" cy="215.6" r="4" fill="#377eb8" stroke="white" stroke-width="1.5"/>
<circle cx="306.1" cy="224.6" r="4" fill="#377eb8" stroke="white" stroke-width="1.5"/>
<circle cx="328.7" cy="226.7" r="4" fill="#377eb8" stroke="white" stroke-width="1.5"/>
<circle cx="351.3" cy="236.7" r="4" fill="#377eb8" stroke="white" stroke-width="1.5"/>
<circle cx="373.9" cy="244.8" r="4" fill="#377eb8" stroke="white" stroke-width="1.5"/>
<circle cx="396.5" cy="246.7" r="4" fill="#377eb8" stroke="white" stroke-width="1.5"/>
<circle cx="419.1" cy="265.0" r="4" fill="#377eb8" stroke="white" stroke-width="1.5"/>
<circle cx="441.7" cy="278.7" r="4" fill="#377eb8" stroke="white" stroke-width="1.5"/>
<circle cx="464.3" cy="296.5" r="4" fill="#377eb8" stroke="white" stroke-width="1.5"/>
<circle cx="487.0" cy="311.0" r="4" fill="#377eb8" stroke="white" stroke-width="1.5"/>
<circle cx="509.6" cy="322.4" r="4" fill="#377eb8" stroke="white" stroke-width="1.5"/>
<circle cx="532.2" cy="327.2" r="4" fill="#377eb8" stroke="white" stroke-width="1.5"/>
<circle cx="554.8" cy="330.5" r="4" fill="#377eb8" stroke="white" stroke-width="1.5"/>
<circle cx="577.4" cy="331.8" r="4" fill="#377eb8" stroke="white" stroke-width="1.5"/>
<circle cx="600.0" cy="332.2" r="4" fill="#377eb8" stroke="white" stroke-width="1.5"/>
<line x1="615" y1="80" x2="635" y2="80" stroke="#e41a1c" stroke-width="2.5"/>
<circle cx="625" cy="80" r="3" fill="#e41a1c"/>
<text x="643" y="84" font-size="9" font-family="sans-serif">mode=A</text>
<line x1="615" y1="100" x2="635" y2="100" stroke="#377eb8" stroke-width="2.5"/>
<circle cx="625" cy="100" r="3" fill="#377eb8"/>
<text x="643" y="104" font-size="9" font-family="sans-serif">mode=B</text>
</svg>
