<?xml version="1.0" encoding="UTF-8"?>
<svg xmlns="http://www.w3.org/2000/svg" width="432" height="242">
<rect x="0" y="0" width="100%" height="100%" fill="white"/>
<text x="260" y="26" font-size="16" font-family="monospace">Linear CKA layer alignment (ngram_polysemy)</text>
<text x="260" y="46" font-size="12" font-family="monospace">rows=width=fixed,residual=vanilla,memory=ple_ngrammer,attn=global  cols=width=fixed,residual=vanilla,memory=none,attn=global  min=0.02903  max=0.3411  (higher is better)</text>
<text x="271.0" y="60" font-size="10" font-family="monospace" text-anchor="middle">L0</text>
<text x="293.0" y="60" font-size="10" font-family="monospace" text-anchor="middle">L1</text>
<text x="315.0" y="60" font-size="10" font-family="monospace" text-anchor="middle">L2</text>
<text x="337.0" y="60" font-size="10" font-family="monospace" text-anchor="middle">L3</text>
<text x="359.0" y="60" font-size="10" font-family="monospace" text-anchor="middle">L4</text>
<text x="381.0" y="60" font-size="10" font-family="monospace" text-anchor="middle">L5</text>
<text x="252" y="85.8" font-size="10" font-family="monospace" text-anchor="end">L0</text>
<rect x="260" y="70" width="22" height="22" fill="#b6c4d7" stroke="#e0e0e0" stroke-width="1"/>
<rect x="282" y="70" width="22" height="22" fill="#c1cdde" stroke="#e0e0e0" stroke-width="1"/>
<rect x="304" y="70" width="22" height="22" fill="#bfcbdc" stroke="#e0e0e0" stroke-width="1"/>
<rect x="326" y="70" width="22" height="22" fill="#d2dce8" stroke="#e0e0e0" stroke-width="1"/>
<rect x="348" y="70" width="22" height="22" fill="#eaf0f7" stroke="#e0e0e0" stroke-width="1"/>
<rect x="370" y="70" width="22" height="22" fill="#f7fbff" stroke="#e0e0e0" stroke-width="1"/>
<circle cx="271.0" cy="81.0" r="3.5" fill="none" stroke="#111111" stroke-width="1.5"/>
<text x="252" y="107.8" font-size="10" font-family="monospace" text-anchor="end">L1</text>
<rect x="260" y="92" width="22" height="22" fill="#95a8c3" stroke="#e0e0e0" stroke-width="1"/>
<rect x="282" y="92" width="22" height="22" fill="#97a9c4" stroke="#e0e0e0" stroke-width="1"/>
<rect x="304" y="92" width="22" height="22" fill="#a0b1c9" stroke="#e0e0e0" stroke-width="1"/>
<rect x="326" y="92" width="22" height="22" fill="#b6c4d7" stroke="#e0e0e0" stroke-width="1"/>
<rect x="348" y="92" width="22" height="22" fill="#d3dce9" stroke="#e0e0e0" stroke-width="1"/>
<rect x="370" y="92" width="22" height="22" fill="#dfe7f0" stroke="#e0e0e0" stroke-width="1"/>
<circle cx="271.0" cy="103.0" r="3.5" fill="none" stroke="#111111" stroke-width="1.5"/>
<text x="252" y="129.8" font-size="10" font-family="monospace" text-anchor="end">L2</text>
<rect x="260" y="114" width="22" height="22" fill="#5d79a0" stroke="#e0e0e0" stroke-width="1"/>
<rect x="282" y="114" width="22" height="22" fill="#56729b" stroke="#e0e0e0" stroke-width="1"/>
<rect x="304" y="114" width="22" height="22" fill="#6982a7" stroke="#e0e0e0" stroke-width="1"/>
<rect x="326" y="114" width="22" height="22" fill="#899ebb" stroke="#e0e0e0" stroke-width="1"/>
<rect x="348" y="114" width="22" height="22" fill="#afbed2" stroke="#e0e0e0" stroke-width="1"/>
<rect x="370" y="114" width="22" height="22" fill="#bcc9da" stroke="#e0e0e0" stroke-width="1"/>
<circle cx="293.0" cy="125.0" r="3.5" fill="none" stroke="#111111" stroke-width="1.5"/>
<text x="252" y="151.8" font-size="10" font-family="monospace" text-anchor="end">L3</text>
<rect x="260" y="136" width="22" height="22" fill="#4d6b96" stroke="#e0e0e0" stroke-width="1"/>
<rect x="282" y="136" width="22" height="22" fill="#3b5b8a" stroke="#e0e0e0" stroke-width="1"/>
<rect x="304" y="136" width="22" height="22" fill="#456491" stroke="#e0e0e0" stroke-width="1"/>
<rect x="326" y="136" width="22" height="22" fill="#637da3" stroke="#e0e0e0" stroke-width="1"/>
<rect x="348" y="136" width="22" height="22" fill="#889dbb" stroke="#e0e0e0" stroke-width="1"/>
<rect x="370" y="136" width="22" height="22" fill="#9aacc5" stroke="#e0e0e0" stroke-width="1"/>
<circle cx="293.0" cy="147.0" r="3.5" fill="none" stroke="#111111" stroke-width="1.5"/>
<text x="252" y="173.8" font-size="10" font-family="monospace" text-anchor="end">L4</text>
<rect x="260" y="158" width="22" height="22" fill="#6882a7" stroke="#e0e0e0" stroke-width="1"/>
<rect x="282" y="158" width="22" height="22" fill="#516e98" stroke="#e0e0e0" stroke-width="1"/>
<rect x="304" y="158" width="22" height="22" fill="#4b6995" stroke="#e0e0e0" stroke-width="1"/>
<rect x="326" y="158" width="22" height="22" fill="#5d79a0" stroke="#e0e0e0" stroke-width="1"/>
<rect x="348" y="158" width="22" height="22" fill="#6d86aa" stroke="#e0e0e0" stroke-width="1"/>
<rect x="370" y="158" width="22" height="22" fill="#6e86aa" stroke="#e0e0e0" stroke-width="1"/>
<circle cx="315.0" cy="169.0" r="3.5" fill="none" stroke="#111111" stroke-width="1.5"/>
<text x="252" y="195.8" font-size="10" font-family="monospace" text-anchor="end">L5</text>
<rect x="260" y="180" width="22" height="22" fill="#54709a" stroke="#e0e0e0" stroke-width="1"/>
<rect x="282" y="180" width="22" height="22" fill="#2b4e81" stroke="#e0e0e0" stroke-width="1"/>
<rect x="304" y="180" width="22" height="22" fill="#2e5083" stroke="#e0e0e0" stroke-width="1"/>
<rect x="326" y="180" width="22" height="22" fill="#2f5183" stroke="#e0e0e0" stroke-width="1"/>
<rect x="348" y="180" width="22" height="22" fill="#284b7f" stroke="#e0e0e0" stroke-width="1"/>
<rect x="370" y="180" width="22" height="22" fill="#08306b" stroke="#e0e0e0" stroke-width="1"/>
<circle cx="381.0" cy="191.0" r="3.5" fill="none" stroke="#111111" stroke-width="1.5"/>
</svg>
