<?xml version="1.0" encoding="UTF-8"?>
<svg xmlns="http://www.w3.org/2000/svg" width="432" height="242">
<rect x="0" y="0" width="100%" height="100%" fill="white"/>
<text x="260" y="26" font-size="16" font-family="monospace">Linear CKA layer alignment (ngram_polysemy)</text>
<text x="260" y="46" font-size="12" font-family="monospace">rows=width=fixed,residual=vanilla,memory=engram,attn=global  cols=width=fixed,residual=vanilla,memory=none,attn=global  min=0.06727  max=0.3229  (higher is better)</text>
<text x="271.0" y="60" font-size="10" font-family="monospace" text-anchor="middle">L0</text>
<text x="293.0" y="60" font-size="10" font-family="monospace" text-anchor="middle">L1</text>
<text x="315.0" y="60" font-size="10" font-family="monospace" text-anchor="middle">L2</text>
<text x="337.0" y="60" font-size="10" font-family="monospace" text-anchor="middle">L3</text>
<text x="359.0" y="60" font-size="10" font-family="monospace" text-anchor="middle">L4</text>
<text x="381.0" y="60" font-size="10" font-family="monospace" text-anchor="middle">L5</text>
<text x="252" y="85.8" font-size="10" font-family="monospace" text-anchor="end">L0</text>
<rect x="260" y="70" width="22" height="22" fill="#5d78a0" stroke="#e0e0e0" stroke-width="1"/>
<rect x="282" y="70" width="22" height="22" fill="#7189ac" stroke="#e0e0e0" stroke-width="1"/>
<rect x="304" y="70" width="22" height="22" fill="#8096b5" stroke="#e0e0e0" stroke-width="1"/>
<rect x="326" y="70" width="22" height="22" fill="#a9b9cf" stroke="#e0e0e0" stroke-width="1"/>
<rect x="348" y="70" width="22" height="22" fill="#dae2ed" stroke="#e0e0e0" stroke-width="1"/>
<rect x="370" y="70" width="22" height="22" fill="#f7fbff" stroke="#e0e0e0" stroke-width="1"/>
<circle cx="271.0" cy="81.0" r="3.5" fill="none" stroke="#111111" stroke-width="1.5"/>
<text x="252" y="107.8" font-size="10" font-family="monospace" text-anchor="end">L1</text>
<rect x="260" y="92" width="22" height="22" fill="#385888" stroke="#e0e0e0" stroke-width="1"/>
<rect x="282" y="92" width="22" height="22" fill="#21457a" stroke="#e0e0e0" stroke-width="1"/>
<rect x="304" y="92" width="22" height="22" fill="#2f5183" stroke="#e0e0e0" stroke-width="1"/>
<rect x="326" y="92" width="22" height="22" fill="#5d789f" stroke="#e0e0e0" stroke-width="1"/>
<rect x="348" y="92" width="22" height="22" fill="#95a8c2" stroke="#e0e0e0" stroke-width="1"/>
<rect x="370" y="92" width="22" height="22" fill="#acbcd1" stroke="#e0e0e0" stroke-width="1"/>
<circle cx="293.0" cy="103.0" r="3.5" fill="none" stroke="#111111" stroke-width="1.5"/>
<text x="252" y="129.8" font-size="10" font-family="monospace" text-anchor="end">L2</text>
<rect x="260" y="114" width="22" height="22" fill="#2b4e81" stroke="#e0e0e0" stroke-width="1"/>
<rect x="282" y="114" width="22" height="22" fill="#08306b" stroke="#e0e0e0" stroke-width="1"/>
<rect x="304" y="114" width="22" height="22" fill="#183e75" stroke="#e0e0e0" stroke-width="1"/>
<rect x="326" y="114" width="22" height="22" fill="#3b5b8b" stroke="#e0e0e0" stroke-width="1"/>
<rect x="348" y="114" width="22" height="22" fill="#728aad" stroke="#e0e0e0" stroke-width="1"/>
<rect x="370" y="114" width="22" height="22" fill="#869bb9" stroke="#e0e0e0" stroke-width="1"/>
<circle cx="293.0" cy="125.0" r="3.5" fill="none" stroke="#111111" stroke-width="1.5"/>
<text x="252" y="151.8" font-size="10" font-family="monospace" text-anchor="end">L3</text>
<rect x="260" y="136" width="22" height="22" fill="#42618f" stroke="#e0e0e0" stroke-width="1"/>
<rect x="282" y="136" width="22" height="22" fill="#193e76" stroke="#e0e0e0" stroke-width="1"/>
<rect x="304" y="136" width="22" height="22" fill="#1b4077" stroke="#e0e0e0" stroke-width="1"/>
<rect x="326" y="136" width="22" height="22" fill="#3a5b8a" stroke="#e0e0e0" stroke-width="1"/>
<rect x="348" y="136" width="22" height="22" fill="#637ea4" stroke="#e0e0e0" stroke-width="1"/>
<rect x="370" y="136" width="22" height="22" fill="#778eb0" stroke="#e0e0e0" stroke-width="1"/>
<circle cx="293.0" cy="147.0" r="3.5" fill="none" stroke="#111111" stroke-width="1.5"/>
<text x="252" y="173.8" font-size="10" font-family="monospace" text-anchor="end">L4</text>
<rect x="260" y="158" width="22" height="22" fill="#5e79a0" stroke="#e0e0e0" stroke-width="1"/>
<rect x="282" y="158" width="22" height="22" fill="#325485" stroke="#e0e0e0" stroke-width="1"/>
<rect x="304" y="158" width="22" height="22" fill="#2d4f82" stroke="#e0e0e0" stroke-width="1"/>
<rect x="326" y="158" width="22" height="22" fill="#365787" stroke="#e0e0e0" stroke-width="1"/>
<rect x="348" y="158" width="22" height="22" fill="#486692" stroke="#e0e0e0" stroke-width="1"/>
<rect x="370" y="158" width="22" height="22" fill="#59759d" stroke="#e0e0e0" stroke-width="1"/>
<circle cx="315.0" cy="169.0" r="3.5" fill="none" stroke="#111111" stroke-width="1.5"/>
<text x="252" y="195.8" font-size="10" font-family="monospace" text-anchor="end">L5</text>
<rect x="260" y="180" width="22" height="22" fill="#506d98" stroke="#e0e0e0" stroke-width="1"/>
<rect x="282" y="180" width="22" height="22" fill="#193e75" stroke="#e0e0e0" stroke-width="1"/>
<rect x="304" y="180" width="22" height="22" fill="#21457a" stroke="#e0e0e0" stroke-width="1"/>
<rect x="326" y="180" width="22" height="22" fill="#1b4077" stroke="#e0e0e0" stroke-width="1"/>
<rect x="348" y="180" width="22" height="22" fill="#1d4278" stroke="#e0e0e0" stroke-width="1"/>
<rect x="370" y="180" width="22" height="22" fill="#0d346e" stroke="#e0e0e0" stroke-width="1"/>
<circle cx="381.0" cy="191.0" r="3.5" fill="none" stroke="#111111" stroke-width="1.5"/>
</svg>
