<?xml version="1.0" encoding="UTF-8"?>
<svg xmlns="http://www.w3.org/2000/svg" width="760" height="420">
<rect x="0" y="0" width="100%" height="100%" fill="white"/>
<text x="80" y="26" font-size="16" font-family="sans-serif" font-weight="bold">Per-Layer CE to Ground Truth (ngram_polysemy)</text>
<text x="80" y="46" font-size="11" font-family="sans-serif" fill="#666666">Lower is better; steeper descent = more useful layer</text>
<rect x="80" y="70" width="500" height="300" fill="#fafafa" stroke="#cccccc" stroke-width="1"/>
<line x1="80" y1="370.0" x2="580" y2="370.0" stroke="#e0e0e0" stroke-width="1"/>
<text x="72" y="374.0" font-size="10" font-family="sans-serif" text-anchor="end">0.0</text>
<line x1="80" y1="310.0" x2="580" y2="310.0" stroke="#e0e0e0" stroke-width="1"/>
<text x="72" y="314.0" font-size="10" font-family="sans-serif" text-anchor="end">1.7</text>
<line x1="80" y1="250.0" x2="580" y2="250.0" stroke="#e0e0e0" stroke-width="1"/>
<text x="72" y="254.0" font-size="10" font-family="sans-serif" text-anchor="end">3.5</text>
<line x1="80" y1="190.0" x2="580" y2="190.0" stroke="#e0e0e0" stroke-width="1"/>
<text x="72" y="194.0" font-size="10" font-family="sans-serif" text-anchor="end">5.2</text>
<line x1="80" y1="130.0" x2="580" y2="130.0" stroke="#e0e0e0" stroke-width="1"/>
<text x="72" y="134.0" font-size="10" font-family="sans-serif" text-anchor="end">7.0</text>
<line x1="80" y1="70.0" x2="580" y2="70.0" stroke="#e0e0e0" stroke-width="1"/>
<text x="72" y="74.0" font-size="10" font-family="sans-serif" text-anchor="end">8.7</text>
<text x="20" y="220.0" font-size="11" font-family="sans-serif" font-weight="bold" text-anchor="middle" transform="rotate(-90 20 220.0)">Cross-Entropy</text>
<text x="80.0" y="390" font-size="10" font-family="sans-serif" text-anchor="middle">L0</text>
<text x="180.0" y="390" font-size="10" font-family="sans-serif" text-anchor="middle">L1</text>
<text x="280.0" y="390" font-size="10" font-family="sans-serif" text-anchor="middle">L2</text>
<text x="380.0" y="390" font-size="10" font-family="sans-serif" text-anchor="middle">L3</text>
<text x="480.0" y="390" font-size="10" font-family="sans-serif" text-anchor="middle">L4</text>
<text x="580.0" y="390" font-size="10" font-family="sans-serif" text-anchor="middle">L5</text>
<polyline points="80.0,84.3 180.0,121.6 280.0,196.5 380.0,288.5 480.0,343.0 580.0,360.3" fill="none" stroke="#e41a1c" stroke-width="2.5"/>
<circle cx="80.0" cy="84.3" r="4" fill="#e41a1c" stroke="white" stroke-width="1.5"/>
<circle cx="180.0" cy="121.6" r="4" fill="#e41a1c" stroke="white" stroke-width="1.5"/>
<circle cx="280.0" cy="196.5" r="4" fill="#e41a1c" stroke="white" stroke-width="1.5"/>
<circle cx="380.0" cy="288.5" r="4" fill="#e41a1c" stroke="white" stroke-width="1.5"/>
<circle cx="480.0" cy="343.0" r="4" fill="#e41a1c" stroke="white" stroke-width="1.5"/>
<circle cx="580.0" cy="360.3" r="4" fill="#e41a1c" stroke="white" stroke-width="1.5"/>
<polyline points="80.0,88.8 180.0,212.4 280.0,248.4 380.0,270.1 480.0,296.0 580.0,308.2" fill="none" stroke="#377eb8" stroke-width="2.5"/>
<circle cx="80.0" cy="88.8" r="4" fill="#377eb8" stroke="white" stroke-width="1.5"/>
<circle cx="180.0" cy="212.4" r="4" fill="#377eb8" stroke="white" stroke-width="1.5"/>
<circle cx="280.0" cy="248.4" r="4" fill="#377eb8" stroke="white" stroke-width="1.5"/>
<circle cx="380.0" cy="270.1" r="4" fill="#377eb8" stroke="white" stroke-width="1.5"/>
<circle cx="480.0" cy="296.0" r="4" fill="#377eb8" stroke="white" stroke-width="1.5"/>
<circle cx="580.0" cy="308.2" r="4" fill="#377eb8" stroke="white" stroke-width="1.5"/>
<line x1="595" y1="80" x2="615" y2="80" stroke="#e41a1c" stroke-width="2.5"/>
<circle cx="605" cy="80" r="3" fill="#e41a1c"/>
<text x="623" y="84" font-size="9" font-family="sans-serif">width=fixed,residual=v...</text>
<line x1="595" y1="100" x2="615" y2="100" stroke="#377eb8" stroke-width="2.5"/>
<circle cx="605" cy="100" r="3" fill="#377eb8"/>
<text x="623" y="104" font-size="9" font-family="sans-serif">width=fixed,residual=v...</text>
</svg>
